<mxfile host="app.diagrams.net" modified="2021-04-04T14:01:03.673Z" agent="5.0 (Windows NT 10.0; Win64; x64) AppleWebKit/537.36 (KHTML, like Gecko) Chrome/89.0.4389.114 Safari/537.36" etag="QPDAij85P34Qd4FeaPnJ" version="14.4.8" type="github">
  <diagram id="vRXlaTLDcDX2f8G_CHBe" name="Page-1">
    <mxGraphModel dx="-454" dy="677" grid="1" gridSize="10" guides="1" tooltips="1" connect="1" arrows="1" fold="1" page="1" pageScale="1" pageWidth="827" pageHeight="1169" math="0" shadow="0">
      <root>
        <mxCell id="0" />
        <mxCell id="1" parent="0" />
        <mxCell id="WeR6U5euo3_2mSVh5HIx-1" value="" style="ellipse;whiteSpace=wrap;html=1;aspect=fixed;fillColor=#000000;" vertex="1" parent="1">
          <mxGeometry x="1356" y="80" width="21" height="21" as="geometry" />
        </mxCell>
        <mxCell id="WeR6U5euo3_2mSVh5HIx-2" value="" style="endArrow=classic;html=1;exitX=0.5;exitY=1;exitDx=0;exitDy=0;" edge="1" parent="1" source="WeR6U5euo3_2mSVh5HIx-1" target="WeR6U5euo3_2mSVh5HIx-4">
          <mxGeometry width="50" height="50" relative="1" as="geometry">
            <mxPoint x="1079" y="286" as="sourcePoint" />
            <mxPoint x="1367" y="187" as="targetPoint" />
          </mxGeometry>
        </mxCell>
        <mxCell id="WeR6U5euo3_2mSVh5HIx-3" style="edgeStyle=orthogonalEdgeStyle;rounded=0;orthogonalLoop=1;jettySize=auto;html=1;" edge="1" parent="1" source="WeR6U5euo3_2mSVh5HIx-4" target="WeR6U5euo3_2mSVh5HIx-7">
          <mxGeometry relative="1" as="geometry" />
        </mxCell>
        <mxCell id="WeR6U5euo3_2mSVh5HIx-4" value="Click on &quot;Sign up&quot; button&lt;br&gt;on Homepage" style="rounded=1;whiteSpace=wrap;html=1;fillColor=#dae8fc;strokeColor=#6c8ebf;" vertex="1" parent="1">
          <mxGeometry x="1303" y="135" width="131" height="68" as="geometry" />
        </mxCell>
        <mxCell id="WeR6U5euo3_2mSVh5HIx-5" value="" style="ellipse;whiteSpace=wrap;html=1;aspect=fixed;fillColor=#000000;" vertex="1" parent="1">
          <mxGeometry x="1358" y="595" width="21" height="21" as="geometry" />
        </mxCell>
        <mxCell id="WeR6U5euo3_2mSVh5HIx-6" style="edgeStyle=orthogonalEdgeStyle;rounded=0;orthogonalLoop=1;jettySize=auto;html=1;" edge="1" parent="1" source="WeR6U5euo3_2mSVh5HIx-7" target="WeR6U5euo3_2mSVh5HIx-9">
          <mxGeometry relative="1" as="geometry" />
        </mxCell>
        <mxCell id="WeR6U5euo3_2mSVh5HIx-7" value="Enter personal information" style="rounded=1;whiteSpace=wrap;html=1;fillColor=#dae8fc;strokeColor=#6c8ebf;" vertex="1" parent="1">
          <mxGeometry x="1303" y="233" width="131" height="68" as="geometry" />
        </mxCell>
        <mxCell id="WeR6U5euo3_2mSVh5HIx-8" style="edgeStyle=orthogonalEdgeStyle;rounded=0;orthogonalLoop=1;jettySize=auto;html=1;" edge="1" parent="1" source="WeR6U5euo3_2mSVh5HIx-9" target="WeR6U5euo3_2mSVh5HIx-12">
          <mxGeometry relative="1" as="geometry" />
        </mxCell>
        <mxCell id="WeR6U5euo3_2mSVh5HIx-9" value="Click on &quot;Rergister&quot;" style="rounded=1;whiteSpace=wrap;html=1;fillColor=#dae8fc;strokeColor=#6c8ebf;" vertex="1" parent="1">
          <mxGeometry x="1303" y="334" width="131" height="68" as="geometry" />
        </mxCell>
        <mxCell id="WeR6U5euo3_2mSVh5HIx-10" style="edgeStyle=orthogonalEdgeStyle;rounded=0;orthogonalLoop=1;jettySize=auto;html=1;entryX=1;entryY=0.5;entryDx=0;entryDy=0;" edge="1" parent="1" source="WeR6U5euo3_2mSVh5HIx-12" target="WeR6U5euo3_2mSVh5HIx-7">
          <mxGeometry relative="1" as="geometry">
            <Array as="points">
              <mxPoint x="1550" y="480" />
              <mxPoint x="1550" y="267" />
            </Array>
          </mxGeometry>
        </mxCell>
        <mxCell id="WeR6U5euo3_2mSVh5HIx-11" style="edgeStyle=orthogonalEdgeStyle;rounded=0;orthogonalLoop=1;jettySize=auto;html=1;entryX=0.5;entryY=0;entryDx=0;entryDy=0;" edge="1" parent="1" source="WeR6U5euo3_2mSVh5HIx-12" target="WeR6U5euo3_2mSVh5HIx-5">
          <mxGeometry relative="1" as="geometry" />
        </mxCell>
        <mxCell id="WeR6U5euo3_2mSVh5HIx-12" value="Information in correct format ?" style="rhombus;whiteSpace=wrap;html=1;fillColor=#DAE8FC;" vertex="1" parent="1">
          <mxGeometry x="1270.75" y="440" width="195.5" height="80" as="geometry" />
        </mxCell>
        <mxCell id="WeR6U5euo3_2mSVh5HIx-13" value="No" style="text;html=1;align=center;verticalAlign=middle;resizable=0;points=[];autosize=1;" vertex="1" parent="1">
          <mxGeometry x="1564" y="370" width="25" height="18" as="geometry" />
        </mxCell>
        <mxCell id="WeR6U5euo3_2mSVh5HIx-14" value="Yes" style="text;html=1;align=center;verticalAlign=middle;resizable=0;points=[];autosize=1;" vertex="1" parent="1">
          <mxGeometry x="1378" y="548" width="30" height="18" as="geometry" />
        </mxCell>
      </root>
    </mxGraphModel>
  </diagram>
</mxfile>
